<svg version="1.1" id="Layer_1" xmlns="http://www.w3.org/2000/svg" xmlns:xlink="http://www.w3.org/1999/xlink" x="0px" y="0px"
	 width="100%" viewBox="0 0 512 512" enable-background="new 0 0 512 512" xml:space="preserve">
<path fill="#FFFFFF" opacity="1.000000" stroke="none" 
	d="
M1.000000,203.000000 
	C1.000000,135.333328 1.000000,68.166664 1.000000,1.000000 
	C171.666672,1.000000 342.333344,1.000000 513.000000,1.000000 
	C513.000000,171.666672 513.000000,342.333344 513.000000,513.000000 
	C342.333344,513.000000 171.666672,513.000000 1.000000,513.000000 
	C1.000000,409.833344 1.000000,306.666656 1.000000,203.000000 
M138.217560,60.703777 
	C136.535400,61.777302 134.851654,62.848335 133.171326,63.924717 
	C46.407227,119.503998 7.348503,226.277100 37.794243,324.651489 
	C76.027847,448.189575 207.940704,515.483215 330.855225,474.152802 
	C440.055847,437.433746 505.889740,322.950012 481.617584,210.407257 
	C466.853088,141.948578 428.347260,90.160728 367.191437,55.893970 
	C321.806915,30.464174 272.860046,22.813437 221.617554,30.295963 
	C192.069824,34.610577 164.496857,44.987915 138.217560,60.703777 
z"/>
<path fill="#010201" opacity="1.000000" stroke="none" 
	d="
M138.514297,60.489769 
	C164.496857,44.987915 192.069824,34.610577 221.617554,30.295963 
	C272.860046,22.813437 321.806915,30.464174 367.191437,55.893970 
	C428.347260,90.160728 466.853088,141.948578 481.617584,210.407257 
	C505.889740,322.950012 440.055847,437.433746 330.855225,474.152802 
	C207.940704,515.483215 76.027847,448.189575 37.794243,324.651489 
	C7.348503,226.277100 46.407227,119.503998 133.171326,63.924717 
	C134.851654,62.848335 136.535400,61.777302 138.514297,60.489769 
M321.766174,443.338165 
	C429.951233,405.588562 484.888977,283.713745 437.186798,177.311035 
	C407.710907,111.563225 355.844696,72.765785 284.395355,61.872208 
	C237.387451,54.705120 192.643539,63.491856 152.966873,89.709175 
	C80.205284,137.788162 49.359730,206.223816 63.358940,292.326538 
	C73.489578,354.635376 108.916733,401.035645 164.381836,430.947021 
	C214.407990,457.925293 267.058685,461.177032 321.766174,443.338165 
z"/>
<path fill="#1ED660" opacity="1.000000" stroke="none" 
	d="
M321.406982,443.500427 
	C267.058685,461.177032 214.407990,457.925293 164.381836,430.947021 
	C108.916733,401.035645 73.489578,354.635376 63.358940,292.326538 
	C49.359730,206.223816 80.205284,137.788162 152.966873,89.709175 
	C192.643539,63.491856 237.387451,54.705120 284.395355,61.872208 
	C355.844696,72.765785 407.710907,111.563225 437.186798,177.311035 
	C484.888977,283.713745 429.951233,405.588562 321.406982,443.500427 
M281.411011,192.023239 
	C288.983307,194.511032 296.712280,196.606735 304.099243,199.558380 
	C328.547577,209.327271 349.895874,223.797485 368.367126,242.593765 
	C375.372101,249.722015 384.998535,249.794968 391.520111,243.275604 
	C398.014191,236.783707 398.125580,226.775177 390.735962,220.228119 
	C379.169312,209.980347 367.774567,199.243515 354.953400,190.759430 
	C307.590607,159.418304 255.459412,148.365799 199.257980,156.853851 
	C173.329071,160.769882 149.018921,169.415192 126.176239,182.223801 
	C120.325706,185.504379 117.197678,191.866379 118.039383,198.153503 
	C118.895370,204.547302 123.503799,209.538925 130.007980,211.445297 
	C135.310303,212.999420 139.734451,210.986847 144.236465,208.594543 
	C187.542618,185.582214 233.012680,180.082428 281.411011,192.023239 
M351.694214,291.346130 
	C358.412537,290.002960 362.644135,286.010284 364.105133,279.323273 
	C365.605560,272.455933 363.551086,266.586334 357.655243,262.827698 
	C344.782471,254.621185 332.185211,245.745193 318.550995,239.015442 
	C279.655151,219.816757 238.306519,213.813782 195.339142,219.120117 
	C177.469208,221.326996 160.128830,225.878250 143.399460,232.581345 
	C135.650742,235.686096 131.449142,243.547836 133.246399,250.999649 
	C135.196426,259.084869 142.176407,264.005432 150.832886,263.056274 
	C153.420197,262.772583 155.963348,261.765411 158.441772,260.857727 
	C189.869827,249.347870 222.042953,246.215149 255.097717,251.804550 
	C285.519775,256.948761 312.970306,268.853058 337.588074,287.368958 
	C341.578583,290.370392 345.766968,292.447449 351.694214,291.346130 
M263.354889,319.071655 
	C277.455505,324.887207 291.699036,330.384552 305.606110,336.631073 
	C314.757996,340.741730 323.712097,339.044983 328.231964,331.151642 
	C332.886414,323.023254 330.015747,313.644531 321.038818,308.711334 
	C270.106140,280.721588 216.292343,273.759918 159.851547,287.154968 
	C156.561859,287.935730 153.207794,290.371307 150.897934,292.946503 
	C146.342804,298.024933 146.297409,305.350037 149.897964,311.053925 
	C153.734482,317.131592 160.541519,319.574615 168.790756,317.590729 
	C200.166504,310.045197 231.411224,310.514099 263.354889,319.071655 
z"/>
<path fill="#010101" opacity="1.000000" stroke="none" 
	d="
M281.002441,191.955750 
	C233.012680,180.082428 187.542618,185.582214 144.236465,208.594543 
	C139.734451,210.986847 135.310303,212.999420 130.007980,211.445297 
	C123.503799,209.538925 118.895370,204.547302 118.039383,198.153503 
	C117.197678,191.866379 120.325706,185.504379 126.176239,182.223801 
	C149.018921,169.415192 173.329071,160.769882 199.257980,156.853851 
	C255.459412,148.365799 307.590607,159.418304 354.953400,190.759430 
	C367.774567,199.243515 379.169312,209.980347 390.735962,220.228119 
	C398.125580,226.775177 398.014191,236.783707 391.520111,243.275604 
	C384.998535,249.794968 375.372101,249.722015 368.367126,242.593765 
	C349.895874,223.797485 328.547577,209.327271 304.099243,199.558380 
	C296.712280,196.606735 288.983307,194.511032 281.002441,191.955750 
z"/>
<path fill="#010101" opacity="1.000000" stroke="none" 
	d="
M351.313049,291.473053 
	C345.766968,292.447449 341.578583,290.370392 337.588074,287.368958 
	C312.970306,268.853058 285.519775,256.948761 255.097717,251.804550 
	C222.042953,246.215149 189.869827,249.347870 158.441772,260.857727 
	C155.963348,261.765411 153.420197,262.772583 150.832886,263.056274 
	C142.176407,264.005432 135.196426,259.084869 133.246399,250.999649 
	C131.449142,243.547836 135.650742,235.686096 143.399460,232.581345 
	C160.128830,225.878250 177.469208,221.326996 195.339142,219.120117 
	C238.306519,213.813782 279.655151,219.816757 318.550995,239.015442 
	C332.185211,245.745193 344.782471,254.621185 357.655243,262.827698 
	C363.551086,266.586334 365.605560,272.455933 364.105133,279.323273 
	C362.644135,286.010284 358.412537,290.002960 351.313049,291.473053 
z"/>
<path fill="#010101" opacity="1.000000" stroke="none" 
	d="
M262.951324,319.011169 
	C231.411224,310.514099 200.166504,310.045197 168.790756,317.590729 
	C160.541519,319.574615 153.734482,317.131592 149.897964,311.053925 
	C146.297409,305.350037 146.342804,298.024933 150.897934,292.946503 
	C153.207794,290.371307 156.561859,287.935730 159.851547,287.154968 
	C216.292343,273.759918 270.106140,280.721588 321.038818,308.711334 
	C330.015747,313.644531 332.886414,323.023254 328.231964,331.151642 
	C323.712097,339.044983 314.757996,340.741730 305.606110,336.631073 
	C291.699036,330.384552 277.455505,324.887207 262.951324,319.011169 
z"/>
</svg>